<svg
  xmlns="http://www.w3.org/2000/svg"
  xmlns:xlink="http://www.w3.org/1999/xlink"
  aria-hidden="true"
  role="img"
  class="iconify iconify--noto-v1"
  width="32"
  height="32"
  preserveAspectRatio="xMidYMid meet"
  viewBox="0 0 128 128"
>
  <path
    fill="#8cd8ec"
    d="M63.79 8.64C1.48 8.64 0 78.5 0 92.33c0 13.83 28.56 25.03 63.79 25.03c35.24 0 63.79-11.21 63.79-25.03c0-13.83-1.47-83.69-63.79-83.69z"
  ></path>
  <!-- Right cheek -->
  <path
    fill="#e5908f"
    d="M105.57 80.12c-3.46 1.24-7.28-.51-8.54-3.93c-1.25-3.41.52-7.19 3.98-8.44c3.46-1.24 7.28.52 8.55 3.93c1.25 3.41-.54 7.2-3.99 8.44z"
  ></path>
  <path
    fill="#e5908f"
    d="M105.33 79.48c-3.11 1.12-6.54-.46-7.67-3.53c-1.13-3.06.47-6.45 3.57-7.58c3.1-1.11 6.53.47 7.67 3.53c1.14 3.07-.47 6.47-3.57 7.58z"
  ></path>
  <path
    fill="#e5908f"
    d="M105.1 78.85c-2.75.99-5.79-.41-6.79-3.12s.42-5.72 3.17-6.71c2.75-.99 5.79.41 6.79 3.13c.99 2.7-.43 5.71-3.17 6.7z"
  ></path>
  <path
    fill="#e5908f"
    d="M104.87 78.21c-2.4.86-5.04-.35-5.91-2.72c-.87-2.36.36-4.98 2.76-5.84c2.39-.86 5.04.36 5.92 2.72c.85 2.36-.38 4.99-2.77 5.84z"
  ></path>
  <path
    fill="#e5908f"
    d="M104.63 77.58c-2.04.73-4.3-.3-5.04-2.32c-.74-2.01.31-4.24 2.35-4.98c2.04-.73 4.29.31 5.04 2.32c.74 2.01-.31 4.25-2.35 4.98z"
  ></path>
  <!-- Left Cheek -->
  <path
    fill="#e5908f"
    d="M27.57 80.12c-3.46 1.24-7.28-.51-8.54-3.93c-1.25-3.41.52-7.19 3.98-8.44c3.46-1.24 7.28.52 8.55 3.93c1.25 3.41-.54 7.2-3.99 8.44z"
  ></path>
  <path
    fill="#e5908f"
    d="M27.33 79.48c-3.11 1.12-6.54-.46-7.67-3.53c-1.13-3.06.47-6.45 3.57-7.58c3.1-1.11 6.53.47 7.67 3.53c1.14 3.07-.47 6.47-3.57 7.58z"
  ></path>
  <path
    fill="#e5908f"
    d="M27.1 78.85c-2.75.99-5.79-.41-6.79-3.12s.42-5.72 3.17-6.71c2.75-.99 5.79.41 6.79 3.13c.99 2.7-.43 5.71-3.17 6.7z"
  ></path>
  <path
    fill="#e5908f"
    d="M26.87 78.21c-2.4.86-5.04-.35-5.91-2.72c-.87-2.36.36-4.98 2.76-5.84c2.39-.86 5.04.36 5.92 2.72c.85 2.36-.38 4.99-2.77 5.84z"
  ></path>
  <path
    fill="#e5908f"
    d="M26.63 77.58c-2.04.73-4.3-.3-5.04-2.32c-.74-2.01.31-4.24 2.35-4.98c2.04-.73 4.29.31 5.04 2.32c.74 2.01-.31 4.25-2.35 4.98z"
  ></path>
  <!-- Eyes and mouth -->
  <path
    fill="none"
    stroke="#2f2f2f"
    stroke-linecap="round"
    stroke-linejoin="round"
    stroke-miterlimit="10"
    stroke-width="6"
    d="M47.73 83.25s4.44.8 9.04 5.13c2.76 2.59 4.51 3.39 7.01 3.39m16.07-8.52s-4.44.8-9.04 5.13c-2.76 2.59-4.51 3.39-7.01 3.39"
  ></path>
  <ellipse
    cx="85.53"
    cy="52.83"
    fill="#fff"
    rx="16.61"
    ry="15.5"
    transform="rotate(-83.65 85.523 52.824)"
  ></ellipse>
  <path
    fill="#2f2f2f"
    d="M92.21 52.79c-.23 3.3-3.14 5.82-6.49 5.62c-3.36-.19-5.9-3.04-5.67-6.34c.22-3.31 3.12-5.82 6.48-5.62c3.36.19 5.91 3.04 5.68 6.34"
  ></path>
  <ellipse
    cx="42.04"
    cy="52.84"
    fill="#fff"
    rx="15.5"
    ry="16.61"
    transform="rotate(-4.313 42.022 52.814)"
  ></ellipse>
  <path
    fill="#2f2f2f"
    d="M48.6 51.56c.38 3.29-2 6.3-5.34 6.72c-3.34.43-6.36-1.9-6.74-5.18c-.4-3.29 1.99-6.3 5.33-6.73c3.33-.42 6.36 1.91 6.75 5.19"
  ></path>
</svg>
